<svg width="32" height="32" viewBox="0 0 32 32" fill="none" xmlns="http://www.w3.org/2000/svg">
<g clip-path="url(#clip0_5681_4854)">
<path d="M9.66685 24.2334L18.4702 26.64L26.0068 24.2967C25.9013 24.1067 25.7482 23.9431 25.5477 23.8059C25.3471 23.6687 25.1202 23.6001 24.8668 23.6001H18.4702C17.9002 23.6001 17.4463 23.5789 17.1085 23.5367C16.7707 23.4945 16.4224 23.4101 16.0635 23.2834L13.1185 22.3017L13.8152 19.8317L16.3802 20.6867C16.7391 20.7923 17.1613 20.8767 17.6468 20.9401C18.1324 21.0034 18.8502 21.0456 19.8002 21.0667C19.8002 20.8345 19.7316 20.6128 19.5943 20.4017C19.4571 20.1906 19.2935 20.0534 19.1035 19.9901L11.6935 17.2667H9.66685V24.2334ZM2.06686 28.6667V14.7334H11.6935C11.8413 14.7334 11.9891 14.7492 12.1369 14.7809C12.2846 14.8126 12.4219 14.8495 12.5485 14.8917L19.9902 17.6467C20.6868 17.9001 21.2516 18.3434 21.6843 18.9767C22.1171 19.6101 22.3335 20.3067 22.3335 21.0667H24.8668C25.9224 21.0667 26.8196 21.4151 27.5585 22.1117C28.2974 22.8084 28.6668 23.7267 28.6668 24.8667V26.1334L18.5335 29.3L9.66685 26.8301V28.6667H2.06686ZM4.60019 26.1334H7.13352V17.2667H4.60019V26.1334Z" fill="#005CB9"/>
<path d="M18.85 14.6766V9.47058L14.29 6.82959V12.0356L18.85 14.6766ZM20.37 14.6766L24.9301 12.0356V6.82959L20.37 9.47058V14.6766ZM18.85 16.4246L13.5299 13.3656C13.2893 13.2262 13.1024 13.0426 12.9694 12.8146C12.8364 12.5866 12.7699 12.3332 12.7699 12.0546V6.01259C12.7699 5.73392 12.8364 5.48059 12.9694 5.25259C13.1024 5.02459 13.2893 4.84092 13.5299 4.70159L18.85 1.64259C19.0907 1.50326 19.344 1.43359 19.61 1.43359C19.876 1.43359 20.1294 1.50326 20.37 1.64259L25.6901 4.70159C25.9308 4.84092 26.1176 5.02459 26.2506 5.25259C26.3836 5.48059 26.4501 5.73392 26.4501 6.01259V12.0546C26.4501 12.3332 26.3836 12.5866 26.2506 12.8146C26.1176 13.0426 25.9308 13.2262 25.6901 13.3656L20.37 16.4246C20.1294 16.5639 19.876 16.6336 19.61 16.6336C19.344 16.6336 19.0907 16.5639 18.85 16.4246ZM22.6501 6.39259L24.1131 5.55659L19.61 2.95359L18.128 3.80859L22.6501 6.39259ZM19.61 8.15958L21.0921 7.30459L16.589 4.70159L15.107 5.55659L19.61 8.15958Z" fill="#005CB9"/>
</g>
<defs>
<clipPath id="clip0_5681_4854">
<rect width="32" height="32" fill="white"/>
</clipPath>
</defs>
</svg>
