<svg width="24" height="24" viewBox="0 0 24 24" fill="none" xmlns="http://www.w3.org/2000/svg">
<g clip-path="url(#clip0_5682_4859)">
<path d="M11.7 9.50049V12.0505H8.69995V14.9505H11.7V17.5005L15.7 13.5005L11.7 9.50049Z" fill="#005CB9"/>
<path d="M20.54 5.22951L19.15 3.54951C18.88 3.20951 18.47 2.99951 18 2.99951H6C5.53 2.99951 5.12 3.20951 4.84 3.54951L3.46 5.22951C3.17 5.56951 3 6.01951 3 6.49951V18.9995C3 20.0995 3.9 20.9995 5 20.9995H19C20.1 20.9995 21 20.0995 21 18.9995V6.49951C21 6.01951 20.83 5.56951 20.54 5.22951ZM6.24 4.99951H17.76L18.57 5.96951H5.44L6.24 4.99951ZM19 18.9995H5V7.99951H19V18.9995Z" fill="#005CB9"/>
</g>
<defs>
<clipPath id="clip0_5682_4859">
<rect width="24" height="24" fill="white"/>
</clipPath>
</defs>
</svg>
